<?xml version="1.0" encoding="UTF-8"?>
<svg width="1200pt" height="1200pt" version="1.1" viewBox="-104 -104 1410 1410" xmlns="http://www.w3.org/2000/svg">
 <path d="m744.42 502.03c-11.391 6.6094-26.016 2.7188-32.625-8.7188-6.6094-11.391-2.7188-26.016 8.7188-32.625 12.469-7.2188 25.875-12.844 39.984-16.594 13.781-3.7031 28.172-5.6719 42.938-5.6719 30 0 58.219 8.0625 82.688 22.172 25.266 14.578 46.312 35.578 60.844 60.703 6.6094 11.391 2.7188 26.016-8.7188 32.625-11.391 6.6094-26.016 2.7188-32.625-8.7188-10.406-18-25.359-32.953-43.266-43.312-17.203-9.9375-37.359-15.656-58.922-15.656-10.641 0-20.906 1.4062-30.609 3.9844-10.172 2.7656-19.688 6.75-28.406 11.812zm-567.61-215.72c-13.219 0-23.953-10.734-23.953-23.953s10.734-23.953 23.953-23.953h213.24c13.219 0 23.953 10.734 23.953 23.953s-10.734 23.953-23.953 23.953zm0-91.969c-13.219 0-23.953-10.734-23.953-23.953s10.734-23.953 23.953-23.953h213.24c13.219 0 23.953 10.734 23.953 23.953s-10.734 23.953-23.953 23.953zm337.78 442.22h-17.344l0.046874-199.18c0-13.219-10.734-23.953-23.953-23.953h-115.73c-13.219 0-23.953 10.734-23.953 23.953v199.22h-17.297v-114.23c0-13.219-10.734-23.953-23.953-23.953h-115.73c-13.219 0-23.953 10.734-23.953 23.953v114.23h-32.156c-13.219 0-23.953 10.734-23.953 23.953s10.734 23.953 23.953 23.953h466.26c11.672 31.5 30 59.719 53.297 83.016 41.766 41.766 99.516 67.641 163.26 67.641 33.516 0 65.391-7.1719 94.172-20.016l21.891 37.969-34.125 19.688c-11.391 6.6094-15.328 21.234-8.7188 32.625 0.23438 0.42188 0.51562 0.84375 0.75 1.2188l54.188 93.844c0.23438 0.46875 0.46875 0.89062 0.70312 1.3594l43.641 75.562 24.047 41.625c12 20.766 31.359 34.734 52.922 40.547 21.516 5.7656 45.281 3.3281 66.141-8.6719 20.766-12 34.734-31.359 40.547-52.922 5.7188-21.422 3.3281-45.047-8.5312-65.766l-24.141-41.766-0.046875-0.09375c-14.531-25.219-29.016-50.484-43.641-75.656-18.562-32.109-37.125-64.219-55.641-96.328-6.5156-11.344-21.281-15.469-32.625-8.7656l-34.078 19.641-21.938-37.969c9.8438-7.1719 19.172-15.094 27.75-23.719 41.766-41.766 67.641-99.516 67.641-163.26 0-63.742-25.828-121.5-67.641-163.26-77.109-77.109-197.48-89.484-288.42-30.797v-57.797c0-13.219-10.734-23.953-23.953-23.953h-115.73c-13.219 0-23.953 10.734-23.953 23.953zm98.109-489.79-89.719 13.453c-13.078 1.9219-22.125 14.062-20.203 27.094 1.9219 13.078 14.062 22.125 27.094 20.203l31.781-4.7812c-13.078 15.047-27.422 29.391-42.938 42.984-29.625 25.922-63.656 48.984-101.86 68.25-38.203 19.312-78.234 33.656-119.02 43.219-42.328 9.9375-85.266 14.766-127.78 14.719-13.172 0-23.859 10.688-23.859 23.859s10.688 23.859 23.859 23.859c46.453 0.046875 93.047-5.1562 138.61-15.844 44.344-10.406 87.938-26.062 129.71-47.156 41.719-21.094 79.078-46.406 111.8-75 18.422-16.125 35.391-33.328 50.766-51.375l5.0156 33.328c1.9219 13.078 14.062 22.078 27.094 20.203 13.078-1.9219 22.078-14.062 20.203-27.094l-13.453-89.719c-1.875-13.078-14.016-22.125-27.094-20.203zm-94.641 598.78h-390.32c-11.625 0-22.219-4.7812-29.906-12.469s-12.469-18.281-12.469-29.906v-575.44c0-11.625 4.7812-22.219 12.469-29.906s18.281-12.469 29.906-12.469h575.48c11.625 0 22.219 4.7812 29.906 12.469s12.469 18.281 12.469 29.906v191.21c0 13.219 10.734 23.953 23.953 23.953s23.953-10.734 23.953-23.953l-0.046875-191.21c0-24.844-10.172-47.391-26.484-63.75-16.359-16.312-38.906-26.484-63.75-26.484h-575.48c-24.844 0-47.391 10.172-63.75 26.484-16.312 16.359-26.484 38.906-26.484 63.75v575.48c0 24.844 10.125 47.391 26.484 63.75s38.906 26.484 63.75 26.484h390.32c13.219 0 23.953-10.734 23.953-23.953s-10.734-23.953-23.953-23.953zm443.58 211.69-31.781-55.078c22.781-13.125 45.516-26.297 68.297-39.422l31.781 55.031zm135.79 77.484 12.094 20.906c5.3906 9.3281 6.4688 20.109 3.7969 29.953-2.625 9.7969-8.9062 18.516-18.281 23.953-9.3281 5.3906-20.062 6.4219-29.859 3.7969-19.969-5.3438-26.766-23.062-36.047-39.188zm-164.68-301.08c33.141-33.141 53.578-78.891 53.578-129.42s-20.484-96.281-53.578-129.42c-71.531-71.531-187.31-71.531-258.84 0-33.094 33.141-53.578 78.891-53.578 129.42s20.484 96.281 53.578 129.42c33.141 33.094 78.891 53.578 129.42 53.578 50.578 0 96.328-20.438 129.42-53.578z" fill="#0c1799" fill-rule="evenodd"/>
</svg>
